<?xml version="1.0" standalone="no"?>
<!DOCTYPE svg PUBLIC "-//W3C//DTD SVG 20010904//EN"
 "http://www.w3.org/TR/2001/REC-SVG-20010904/DTD/svg10.dtd">
<svg version="1.0" xmlns="http://www.w3.org/2000/svg"
 width="114.000000pt" height="118.000000pt" viewBox="0 0 114.000000 118.000000"
 preserveAspectRatio="xMidYMid meet">

<g transform="translate(0.000000,118.000000) scale(0.100000,-0.100000)"
fill="#000000" stroke="none">
<path d="M490 946 c-25 -7 -57 -18 -71 -24 -29 -11 -139 -109 -139 -123 0 -5
16 -9 36 -9 25 0 48 10 81 35 49 37 125 65 178 65 52 0 121 -26 175 -64 35
-25 61 -36 85 -36 19 0 35 4 35 9 0 18 -104 104 -154 127 -67 30 -164 39 -226
20z"/>
<path d="M648 711 l4 -51 44 0 45 0 -3 -57 -3 -58 -42 -3 c-41 -3 -41 -3 -45
-48 l-3 -44 135 0 c154 0 188 11 228 70 20 29 23 45 20 90 -4 62 -25 98 -73
126 -24 15 -57 19 -170 22 l-140 4 3 -51z m372 -117 c0 -17 -32 -73 -53 -92
-25 -24 -81 -42 -104 -35 -25 9 -13 31 19 37 47 9 78 33 94 71 10 24 19 33 29
29 8 -4 15 -8 15 -10z"/>
<path d="M192 730 c-94 -57 -96 -195 -3 -252 33 -21 47 -23 191 -23 l155 0 3
48 3 47 45 0 44 0 0 55 0 55 -45 0 -45 0 0 45 0 45 -123 0 c-121 0 -124 -1
-123 -22 1 -17 -6 -23 -32 -29 -38 -8 -67 -32 -85 -68 -18 -37 -43 -34 -39 4
4 37 56 92 97 104 20 6 24 9 10 10 -11 1 -35 -8 -53 -19z"/>
<path d="M279 402 c17 -33 102 -103 149 -125 38 -18 66 -22 147 -22 91 0 105
3 158 30 34 16 79 51 104 80 l46 50 -42 3 c-33 3 -48 -2 -73 -23 -64 -54 -107
-70 -193 -70 -85 0 -129 16 -193 70 -21 18 -42 25 -71 25 -37 0 -41 -2 -32
-18z"/>
</g>
</svg>
